# xmcd
#
# Track frame offsets:
#	150
#	16564
#	32770
#	58993
#	82287
#	104332
#	122322
#	138757
#	155535
#	175396
#	197276
#	215617
#	233171
#	251396
#
# Disc length: 3554 seconds
#
# Revision: 0
# Processed by: cddbd v1.5.2PL0 Copyright (c) Steve Scherf et al.
# Submitted via: EasyCDDAExtractor 12.0.0.1
#
DISCID=b30de00e
DTITLE=MC THE MAX - Fall... In Love (5th Album Full Package+New Single) 
DYEAR=2007
DGENRE=ballad
TTITLE0=사랑이 사랑을 버리다 (Fall Mix), (2007 New Version)
TTITLE1=사랑의 시(時) (2007 New Version)
TTITLE2=사랑은 아프려고 하는거죠 (2007 New Version)
TTITLE3=행복하지 말아요 (2007 New Version)
TTITLE4=잠시만 안녕 (2007 New Version)
TTITLE5=별 (2007 New Version)
TTITLE6=사랑하고 싶었어 (2007 New Version)
TTITLE7=사랑을 믿어요 (2007 New Version)
TTITLE8=사랑을 찾아서 (2007 New Version)
TTITLE9=사랑이 끝나면
TTITLE10=해바라기도 가끔 목이 아프죠 (2007 New Version)
TTITLE11=태양은 가득히 (2007 New Version)
TTITLE12=Sixth Sense (2007 New Version)
TTITLE13=붉은 노을 (2007 New Version)
EXTD=
EXTT0=
EXTT1=
EXTT2=
EXTT3=
EXTT4=
EXTT5=
EXTT6=
EXTT7=
EXTT8=
EXTT9=
EXTT10=
EXTT11=
EXTT12=
EXTT13=
PLAYORDER=
